<svg width="380" height="1246" viewBox="0 0 380 1246" fill="none" xmlns="http://www.w3.org/2000/svg">
<path fill-rule="evenodd" clip-rule="evenodd" d="M273.647 589.531C273.565 568.132 240.895 544.068 226.939 531.661C199.346 507.123 170.647 484.463 142.214 461.441C113.782 438.419 85.2722 415.459 58.1598 390.185C40.5557 373.778 19.8708 355.299 7.93172 331.871C-17.5022 281.946 62.6887 289.36 83.4606 288.268C136.304 285.478 196.915 286.751 246.447 260.752C276.016 245.232 287.807 219.202 281.456 181.265C279.409 168.927 273.35 154.729 278.483 142.709C283.964 129.872 296.573 122.465 307.038 117.497C345.21 99.399 389.097 97.3021 429.484 95.0305C473.034 92.5342 516.993 93.2644 560.236 93.0709C578.572 92.9898 597.721 84.9579 615.182 78.4302C638.073 69.8742 660.692 60.2635 683.393 50.9711C733.335 30.5765 784.796 9.09597 837.634 3.91618C870.724 0.671013 906.889 5.05824 932.594 33.2849C945.5 47.4576 952.255 68.5262 959.717 87.2421C968.749 109.852 977.423 132.681 987.039 154.935C1018.02 226.609 1062.24 296.649 1134.02 300.169C1144.88 300.699 1155.55 298.97 1166.36 298.646C1173.24 298.446 1179.36 300.475 1181.92 309.255C1188.36 331.279 1168.14 366.046 1159.85 383.52C1141.69 421.769 1121.22 458.302 1102.05 495.784C1089.36 520.572 1067.4 554.446 1067.17 584.564C1066.97 611.399 1096.24 630.795 1112.18 644.013C1127.11 656.388 1154.17 673.706 1155.8 698.881C1156.6 711.088 1149.99 721.204 1143.1 729.055C1131.02 742.784 1117.1 752.47 1106.23 768.134C1088.41 793.833 1073.51 829.193 1075.93 863.823C1077.61 887.818 1088.84 903.533 1103.12 918.554C1109.13 924.869 1114 929.338 1114.32 939.591C1114.83 955.873 1109.6 973.104 1105.29 988.2C1089.87 1042.23 1067.98 1094.47 1043.63 1143.24C1031.46 1167.62 1018.31 1191.92 1002.18 1212.72C991.609 1226.37 977.357 1242.62 961.237 1242.6C942.573 1242.6 922.825 1234.39 904.683 1228.25C870.801 1216.77 837.327 1203.5 803.987 1189.89C726.883 1158.4 650.505 1124.36 574.851 1087.77C521.563 1061.95 467.144 1036.1 417.044 1001.77C407.273 995.033 398.051 987.174 389.501 978.302C380.367 968.985 369.031 964.816 357.538 961.708C286.2 942.418 208.046 957.228 136.411 966.514C118.229 968.866 100.046 971.232 81.8127 972.879C66.1379 974.296 47.3721 978.359 32.1374 972.255C2.11825 960.242 28.3607 915.964 39.4554 897.922C78.5171 834.398 128.914 780.653 175.626 725.785C197.836 699.655 220.215 673.594 241.217 645.985C252.153 631.631 273.718 608.291 273.647 589.531Z" stroke="#EFEFEF" stroke-opacity="0.09" stroke-width="5"/>
<path fill-rule="evenodd" clip-rule="evenodd" d="M287.108 585.924C275.135 563.281 254.129 546.544 236.692 530.793C211.599 508.118 185.718 486.704 160.225 464.671C136.121 443.836 111.965 422.765 89.6427 399.104C76.0311 384.676 58.9526 367.422 52.5053 346.082C38.5199 299.827 113.757 306.845 132.331 305.635C178.507 302.641 230.859 301.954 273.578 277.601C300.254 262.393 311.212 237.173 305.523 202.16C303.557 190.046 300.013 179.703 304.499 167.651C309.686 153.703 321.618 145.008 332.557 138.869C366.821 119.638 407.323 115.552 444.466 112.152C482.837 108.64 522.817 106.164 559.954 108.734C574.805 109.757 591.899 103.949 606.596 99.4956C629.21 92.6338 651.594 84.7178 674.096 77.3571C719.826 62.386 766.745 47.9639 814.319 46.3233C848.665 45.1381 884.476 51.5632 913.051 76.3964C942.011 101.579 954.859 140.616 970.919 177.726C998.654 241.883 1036.11 319.888 1100.28 333.444C1110.01 335.502 1119.36 334.385 1129.08 334.891C1134.08 335.147 1139.77 335.957 1142.3 341.965C1148.88 357.559 1130.85 386.073 1124.78 398.019C1108.02 431.03 1089.17 462.426 1071.6 494.8C1057.64 520.507 1039.95 549.071 1034.56 579.543C1028.01 616.522 1070.8 642.833 1085.85 668.87C1111.95 714.021 1062.51 739.746 1038.14 761.273C1010.16 785.988 987.055 831.076 1012.14 869.314C1021.74 883.936 1033.55 892.65 1037.83 911.732C1044.54 941.575 1039.47 975.678 1034.03 1005.18C1025.84 1049.52 1012.87 1093.39 995.243 1133.47C982.615 1162.16 961.665 1207.16 930.985 1203.78C910.332 1201.53 889.336 1193.3 869.226 1186.03C839.115 1175.14 809.382 1162.73 779.808 1149.85C711.541 1120.18 644.026 1087.47 577.837 1051.49C532.675 1026.93 406.698 926.566 397.219 922.986C368.957 912.319 336.823 914.196 307.684 915.849C268.923 918.045 230.357 923.734 191.822 929.005C173.478 931.5 155.043 934.551 136.602 935.78C123.477 936.653 106.24 937.401 94.7432 928.101C72.303 909.955 97.3037 868.435 107.643 850.869C139.316 797.016 179.383 750.382 216.95 702.699C235.386 679.288 254.103 655.914 270.839 630.626C277.588 620.414 294.508 599.91 287.108 585.924Z" stroke="#EFEFEF" stroke-opacity="0.09" stroke-width="5"/>
<path fill-rule="evenodd" clip-rule="evenodd" d="M303.672 574.311C270.974 528.999 225.845 495.298 186.895 457.454C167.346 438.455 147.674 418.937 130.813 396.306C122.042 384.537 111.09 369.656 109.4 353.252C104.884 309.368 172.697 315.302 192.993 313.636C232.235 310.404 276.566 307.951 312.167 285.557C333.917 271.867 344.629 249.398 340.563 219.866C338.761 206.762 335.955 195.631 340.563 182.764C345.233 169.73 354.962 160.532 364.813 153.638C393.123 133.808 428.304 127.468 460.177 122.745C497.568 117.243 535.24 115.095 572.889 116.318C605.863 117.372 638.679 105.511 670.875 97.6924C713.527 87.3407 756.951 78.2995 800.596 79.6659C835.066 80.7517 869.806 89.2813 899.273 111.95C929.217 135.037 947.219 169.592 963.45 206.881C987.987 263.25 1018.56 338.788 1072.39 360.196C1080.22 363.316 1087.52 363.659 1095.59 364.202C1099.52 364.464 1104.58 364.545 1106.53 369.531C1111.21 381.536 1093.9 404.81 1089.08 412.922C1073.66 438.817 1056.96 463.544 1041.16 489.096C1026.41 512.95 1010.35 537.809 1001.19 565.763C986.614 610.283 1033.22 636.315 1031.91 678.739C1031.1 705.077 1010.41 723.964 994.023 737.03C973.85 753.097 944.803 763.661 934.705 792.982C927.184 814.821 938.986 827.531 948.074 844.103C963.476 872.182 964.526 910.244 962.923 942.747C960.762 986.668 952.319 1031.24 937.947 1071.61C931.434 1089.91 923.456 1108.95 911.71 1123.16C900.707 1136.48 890.292 1139.9 875.587 1137.17C830.57 1128.81 785.118 1105.5 741.949 1084.69C687.71 1058.53 634.219 1029.65 582.326 997.163C546.94 975.006 510.755 951.563 479.696 920.951C471.601 912.971 463.311 904.298 457.392 893.771C452.917 885.859 451.017 879.326 443.475 874.809C421.12 861.425 390.025 864.925 366.072 866.317C327.773 868.532 289.658 874.428 251.594 879.738C229.383 882.858 187.54 892.673 169.804 869.131C154.494 848.802 172.968 814.14 182.405 796.232C206.275 750.945 236.981 711.198 265.47 670.272C278.527 651.515 292.095 632.615 302.879 611.762C305.633 606.446 310.047 599.401 310.805 592.943C311.655 585.543 307.686 579.896 303.672 574.311Z" stroke="#EFEFEF" stroke-opacity="0.09" stroke-width="5"/>
<path fill-rule="evenodd" clip-rule="evenodd" d="M306.483 584.86C276.269 544.795 239.869 511.881 207.432 474.389C192.889 457.578 178.202 439.944 167.12 419.437C161.159 408.409 154.829 394.528 156.473 380.821C161.19 341.481 216.963 345.034 239.495 342.73C272.976 339.345 311.44 335.935 341.044 314.723C360.438 300.829 367.709 280.309 364.089 253.845C360.202 225.458 368.892 204.851 388.67 189.015C413.466 169.176 444.765 161.09 473.555 155.345C508.242 148.456 543.368 145.403 578.505 146.221C612.678 147.021 645.785 140.039 679.732 135.5C724.74 129.486 771.193 126.52 815.695 138.847C854.44 149.581 889.437 173.235 915.672 209.815C943.074 247.994 956.64 296.096 978.891 338.333C992.769 364.679 1012.12 399.529 1038.05 409.77C1046.7 413.186 1062.47 408.578 1055.56 425.382C1051.61 434.992 1044.22 443.422 1038.38 451.278C1028.95 463.973 1019.2 476.318 1009.61 488.838C989.168 515.527 967.276 542.785 951.954 574.388C932.648 614.178 961.346 644.801 957.848 685.147C955.969 706.859 943.586 724.187 930.487 737.8C922.012 746.617 912.737 754.255 903.269 761.379C893.38 768.823 881.679 774.493 873.055 784.116C860.764 797.81 866.101 814.021 868.405 831.724C872.461 862.835 873.352 894.438 871.058 925.816C868.251 964.276 861.671 1003.83 847.808 1038.79C842.416 1052.39 835.585 1066.82 825.44 1075.94C815.295 1085.06 804.802 1084.44 793.178 1081.69C758.698 1073.57 724.29 1054.68 691.582 1036.78C650.645 1014.37 610.511 989.322 572.186 960.829C545.731 941.159 519.189 919.909 497.056 893.238C490.619 885.476 484.494 877.165 479.542 867.886C476.141 861.523 474.318 853.311 469.392 848.528C453.978 833.597 423.032 838.056 404.954 838.924C368.877 840.653 333.368 848.877 297.337 850.876C277.672 851.968 246.874 854.716 232.433 834.303C218.852 815.113 231.153 784.89 239.27 766.4C255.222 730.045 276.653 697.654 295.862 663.859C303.758 649.953 312.413 635.403 317.529 619.523C322.076 605.373 314.226 595.132 306.483 584.86Z" stroke="#EFEFEF" stroke-opacity="0.09" stroke-width="5"/>
<path fill-rule="evenodd" clip-rule="evenodd" d="M313.913 585.517C289.864 550.261 260.872 518.965 236.648 483.136C222.469 462.153 198.052 426.878 209.017 397.297C221.047 364.791 262.98 363.906 287.218 361.287C316.067 358.169 349.946 353.91 374.635 333.613C382.443 327.197 389.095 318.704 391.915 307.518C394.934 295.545 391.633 285.07 391.203 273.085C390.303 247.943 402.614 227.759 418.906 213.897C441.932 194.299 470.725 185.033 497.921 178.573C528.733 171.286 560.056 167.694 591.442 167.847C621.437 167.972 651.115 167.162 681.141 166.226C720.408 164.979 760.227 166.993 798.317 179.708C835.839 192.241 869.954 215.73 896.751 250.281C922.893 283.997 940.531 325.208 955.979 367.185C964.744 391.012 979.552 426.617 1000.46 438.651C1009.76 444.007 1018.88 443.64 1008.99 457.57C996.545 475.11 979.767 489.184 965.348 504.187C944.547 525.837 923.225 547.91 905.767 573.651C894.617 590.088 889.648 606.038 890.416 627.32C891.01 643.533 893.701 659.577 892.34 675.851C889.152 714.05 864.473 740.246 842.655 764.639C828.619 780.328 815.802 792.294 808.577 814.611C800.032 840.987 796.445 869.683 790.734 897.07C784.461 927.144 777.215 958.428 763.523 984.916C751.334 1008.5 736.511 1019.07 714.324 1012.72C679.718 1002.82 645.609 978.425 614.888 955.859C583.618 932.899 552.887 907.084 526.975 875.526C512.985 858.484 503.437 838.475 491.013 820.167C475.386 797.183 440.034 805.888 419.024 807.833C384.147 811.063 274.406 835.232 284.532 756.951C288.759 724.277 305.404 694.122 317.577 665.288C322.622 653.322 329.924 638.962 331.065 625.25C332.308 610.316 321.143 596.13 313.913 585.517Z" stroke="#EFEFEF" stroke-opacity="0.09" stroke-width="5"/>
<path fill-rule="evenodd" clip-rule="evenodd" d="M326.61 588.511C308.232 556.562 286.238 526.378 270.468 491.872C260.238 469.524 250.193 439.665 263.389 416.02C278.284 389.337 311.127 383.117 335.259 379.717C360.123 376.217 389.805 373.272 410.127 353.04C416.592 346.595 421.922 337.904 422.914 327.498C423.87 317.516 421.17 307.534 422.065 297.371C424.07 274.549 435.42 255.746 450.054 242.108C493.342 201.761 557.769 192.79 609.998 191.735C636.141 191.211 663.045 193.963 689.356 195.934C723.499 198.492 757.692 203.982 790.254 217.215C859.484 245.339 905.887 307.715 938.295 385.332C948.495 409.763 956.3 436.197 972.284 455.83C980.524 465.968 978.724 473.249 970.3 482.495C957.129 496.944 941.063 507.986 926.444 520.046C905.652 537.196 884.415 554.603 866.026 575.147C853.352 589.309 844.354 602.953 841.623 624.19C839.674 639.332 840.129 654.76 838.958 669.996C836.728 698.937 829.091 727.661 815.573 751.668C804.831 770.696 792.044 787.99 778.827 804.479C761.646 825.947 747.114 847.758 734.066 873.237C716.767 906.964 692.461 969.177 651.716 952.713C606.776 934.546 564.654 888.385 535.821 843.659C526.139 828.642 518.19 810.225 505.132 799.151C485.582 782.6 465.746 783.18 442.494 783.248C407.682 783.342 331.929 792.557 331.111 728.971C330.789 703.779 339.73 679.959 344.011 655.727C348.839 628.589 339.162 610.284 326.61 588.511Z" stroke="#EFEFEF" stroke-opacity="0.09" stroke-width="5"/>
</svg>
