<svg width="582" height="661" viewBox="0 0 582 661" fill="none" xmlns="http://www.w3.org/2000/svg">
<path fill-rule="evenodd" clip-rule="evenodd" d="M353.537 444.367C311.858 475.198 264.741 500.647 220.31 526.513C155.38 564.309 89.4926 601.089 21.2677 629.244C-15.3106 644.335 -62.7089 666.092 -101.958 654.269C-116.308 649.947 -129.394 636.877 -142.26 628.384C-160.002 616.672 -178.005 605.541 -195.977 594.385C-232.028 572.023 -268.192 549.886 -303.624 526.089C-320.686 514.628 -337.241 500.191 -355.003 490.413C-365.383 484.695 -377.804 487.37 -388.895 487.732C-414.587 488.574 -440.263 490.17 -465.94 491.53C-497.346 493.188 -528.824 494.953 -560.266 494.298C-574.447 493.999 -609.178 497.067 -616.985 482.176C-621.185 474.156 -611.286 459.695 -606.697 453.004C-598.271 440.707 -588.587 429.625 -579.031 418.656C-556.93 393.289 -533.459 369.131 -513.814 340.794C-503.72 326.227 -490.496 308.43 -497.085 288.543C-503.736 268.458 -515.257 251.065 -522.286 231.048C-530.379 208.012 -533.735 184.042 -537.556 159.615C-540.386 141.562 -546.975 125.567 -553.17 108.923C-560.015 90.5273 -567.106 71.9754 -571.858 52.5754C-574.999 39.7605 -580.069 16.7063 -569.08 8.5933C-553.467 -2.9432 -524.189 6.39823 -506.391 9.79682C-481.794 14.4862 -457.376 20.4603 -432.845 25.605C-415.037 29.3465 -397.167 33.4497 -379.062 33.8863C-349.877 34.5909 -320.594 32.1527 -291.484 29.8828C-237.584 25.6798 -184.07 19.9801 -129.987 19.9801C-82.6055 19.9801 26.89 86.8107 52.5204 98.5779C103.679 122.069 156.198 144.337 204.609 175.592C217.706 184.054 237.862 195.329 244.753 212.746C249.005 223.478 247.05 229.682 257.077 236.598C270.757 246.033 288.284 249.737 303.427 253.959C327.814 260.756 352.391 266.512 376.891 272.667C426.443 285.083 475.657 299.126 525.004 312.639C539.922 316.724 557.971 317.628 572.193 324.824C581.361 329.445 580.409 335.263 573.313 342.285C560.866 354.607 543.421 361.448 528.719 368.476C507.176 378.771 485.28 387.957 463.374 397.011C441.468 406.066 419.449 414.84 397.533 423.913C383.055 429.887 366.546 434.745 353.537 444.367Z" stroke="#EFEFEF" stroke-opacity="0.09" stroke-width="5"/>
<path fill-rule="evenodd" clip-rule="evenodd" d="M319.239 437.585C275.152 468.479 226.213 493.09 179.035 517.101C118.655 547.851 56.9087 576.671 -6.71023 595.892C-44.0639 607.171 -88.1361 619.623 -126.303 606.69C-139.92 602.075 -150.092 591.702 -161.764 582.547C-175.068 572.099 -188.884 562.526 -202.699 553.103C-231.139 533.706 -259.88 514.972 -288.92 496.899C-304.301 487.288 -321.233 474.417 -338.611 471.083C-352.426 468.429 -368.12 472.269 -381.997 473.387C-406.988 475.398 -431.974 477.471 -456.976 479.232C-485.825 481.262 -514.756 483.135 -543.667 482.81C-559.78 482.629 -587.442 485.621 -598.838 472.925C-608.78 461.847 -572.583 421.779 -566.217 414.167C-546.338 390.399 -525.43 367.768 -506.927 342.351C-495.992 327.363 -482.678 309.135 -478.068 289.27C-474.143 272.34 -481.716 253.05 -486.188 237.4C-491.781 217.797 -496.294 197.477 -502.793 178.286C-508.58 161.188 -517.791 145.957 -525.88 130.413C-534.779 113.315 -543.79 95.9354 -550.396 77.282C-554.443 65.804 -561.141 46.5823 -553.098 35.6413C-543.805 23.0267 -515.16 31.27 -503.386 33.0685C-479.5 36.7655 -455.799 42.2609 -432.077 47.1818C-392.676 55.3501 -355.113 62.4942 -314.991 60.7831C-262.742 58.5475 -210.544 53.2892 -158.305 50.3791C-139.014 49.2925 -119.416 47.1068 -100.11 48.2871C-89.0419 48.9678 -80.6142 53.0895 -74.1771 62.3881C-65.3862 75.0776 -45.1385 82.1031 -31.0567 89.3846C-9.09987 100.731 13.1333 111.285 35.305 121.976C83.9774 145.457 133.586 168.088 179.746 198.457C194.35 208.062 211.072 218.772 221.874 234.64C227.902 243.489 226.382 252.013 230.061 261.418C234.932 273.789 250.948 279.372 260.522 283.418C278.999 291.237 298.234 296.476 317.32 301.385C360.507 312.488 403.797 319.789 447.685 325.165C457.97 326.414 498.47 330.742 477.199 351.6C453.697 374.65 419.761 385.946 392.094 398.936C367.17 410.614 342.224 421.48 319.239 437.585Z" stroke="#EFEFEF" stroke-opacity="0.09" stroke-width="5"/>
<path fill-rule="evenodd" clip-rule="evenodd" d="M258.311 431.872C216.87 459.05 170.963 479.327 126.331 498.724C72.1712 522.262 16.6541 543.243 -40.1488 554.996C-75.8318 562.372 -115.172 568.039 -150.614 555.781C-174.818 547.414 -193.541 524.793 -214.799 509.23C-236.057 493.668 -258.176 479.059 -280.955 466.882C-295.093 459.325 -310.302 451.712 -326.033 452.709C-364.282 455.129 -402.486 460.896 -440.776 463.696C-466.106 465.566 -491.488 467.106 -516.895 466.645C-532.217 466.37 -553.265 467.493 -566.829 457.666C-581.823 446.799 -501.989 354.008 -494.444 343.565C-475.527 317.377 -452.619 282.623 -456.276 245.381C-459.775 209.779 -474.937 183.199 -492.087 155.303C-501.82 139.435 -533.031 97.0428 -521.465 76.4047C-514.857 64.608 -493.076 68.6919 -482.729 69.4962C-462.336 71.0799 -442.056 74.4843 -421.772 77.4397C-392.194 81.7232 -361.803 88.3386 -332.098 90.2778C-311.413 91.6245 -290.606 89.8225 -269.886 89.7851C-240.175 89.7353 -210.465 90.0096 -180.755 90.3338C-155.809 90.6081 -130.652 90.3339 -105.793 93.2519C-90.3386 95.0476 -78.6082 99.0816 -67.5232 110.479C-57.8776 120.393 -43.3247 126.198 -31.0308 132.502C-10.7254 142.908 9.84632 152.553 30.3515 162.355C73.2828 182.881 116.706 202.977 157.798 228.628C176.557 240.331 208.095 256.716 212.496 285.092C214.084 295.324 215.252 299.745 223.447 305.562C235.081 313.817 249.014 317.54 262.066 320.776C292.493 328.32 323.801 327.191 354.178 334.649C366.548 337.722 382.699 344.356 368.577 359.545C352.098 377.309 328.109 387.073 308.367 398.047C298.512 403.521 288.359 408.646 279 415.33C271.814 420.48 265.662 427.083 258.311 431.872Z" stroke="#EFEFEF" stroke-opacity="0.09" stroke-width="5"/>
<path fill-rule="evenodd" clip-rule="evenodd" d="M179.819 423.388C141.533 445.463 99.9536 461.513 59.1205 475.981C13.7663 492.031 -32.6823 505.325 -79.7447 510.981C-112.241 514.9 -146.866 516.056 -178.406 504.062C-198.352 496.475 -211.874 480.519 -229.038 467.138C-254.942 446.913 -282.969 430.888 -314.09 434.788C-348.98 439.15 -383.984 442.423 -419.103 444.606C-440.287 445.925 -461.552 446.913 -482.762 445.994C-496.171 445.419 -513.448 444.45 -525.114 437.044C-540.723 427.125 -482.092 351.651 -474.783 340.651C-456.658 313.37 -443.371 284.745 -435.607 250.945C-429.276 223.364 -442.21 201.683 -455.553 181.052C-463.849 168.24 -490.653 136.015 -482.26 119.378C-477.657 110.203 -462.488 110.678 -454.341 110.209C-438.814 109.321 -423.22 110.246 -407.693 110.653C-384.765 111.278 -360.36 106.984 -337.626 110.44C-287.245 118.09 -236.991 124.715 -186.297 129.959C-158.352 132.846 -130.239 135.471 -102.545 141.04C-92.6022 143.04 -82.3325 145.159 -72.9119 149.684C-66.8514 152.59 -63.5475 157.54 -58.4331 161.602C-34.0478 180.94 -2.21607 190.89 25.2481 203.283C61.7595 219.758 98.4653 235.977 134.005 255.439C152.698 265.677 178.807 277.439 191.669 298.333C195.556 304.645 193.899 309.695 196.344 315.764C199.157 322.764 207.703 324.851 213.221 326.801C225.746 331.232 278.174 337.932 254.014 363.926C242.486 376.307 227.797 384.251 214.802 393.982C210.096 397.507 205.509 401.051 201.586 405.807C195.024 413.782 188.56 418.332 179.819 423.388Z" stroke="#EFEFEF" stroke-opacity="0.09" stroke-width="5"/>
<path fill-rule="evenodd" clip-rule="evenodd" d="M96.1892 413.831C20.6074 449.545 -67.9712 473.877 -150.374 469.163C-177.777 467.59 -207.26 462.339 -231.014 444.369C-245.021 433.755 -256.213 421.773 -273.038 417.939C-285.184 415.173 -298.263 418.314 -310.481 419.45C-328.177 421.099 -345.884 422.572 -363.605 423.765C-385.576 425.22 -407.618 426.343 -429.629 425.744C-445.358 425.313 -467.077 425.8 -480.74 415.498C-497.052 403.21 -455.53 345.568 -449.688 335.297C-435.528 310.404 -425.601 286.284 -422.014 256.283C-420.958 247.542 -417.401 238.582 -417.863 229.772C-418.344 220.775 -422.89 212.764 -427.087 205.69C-432.576 196.418 -451.62 174.427 -446.167 163.12C-443.154 156.876 -431.843 156.09 -425.98 154.766C-414.982 152.268 -403.825 150.926 -392.761 148.94C-373.988 145.556 -355.349 134.536 -336.51 134.848C-285.851 135.672 -234.458 154.828 -184.813 165.349C-155.299 171.624 -125.585 177.318 -96.4297 185.816C-87.2049 188.507 -77.7033 191.292 -68.9347 195.856C-62.8155 199.04 -58.8848 204.716 -53.2166 208.281C-31.482 221.973 -6.48791 230.284 16.8508 239.5C47.1492 251.488 77.55 263.113 107.638 275.876C126.498 283.874 150.749 290.911 167 305.746C178.869 316.579 170.756 319.819 164.494 329.909C161.296 335.054 162.034 340.124 160.645 345.949C158.662 354.266 153.055 360.253 147.797 365.636C140.545 373.072 130.885 379.197 124.955 388.313C122.864 391.522 122.962 395.506 121.27 398.303C116.351 406.451 103.297 410.472 96.1892 413.831Z" stroke="#EFEFEF" stroke-opacity="0.09" stroke-width="5"/>
<path fill-rule="evenodd" clip-rule="evenodd" d="M15.8301 401.107C-45.513 423.561 -113.768 436.346 -178.61 430.412C-201.17 428.345 -223.869 423.542 -244.885 412.993C-254.446 408.208 -261.623 402.874 -272.1 402.587C-296.411 401.925 -320.797 404.242 -345.102 404.798C-362.496 405.198 -379.977 405.342 -397.329 403.636C-408.932 402.5 -424.622 401.138 -434.127 392.463C-447.939 379.827 -423.005 336.875 -417.93 325.007C-409.52 305.327 -401.176 283.448 -404.512 260.675C-405.535 253.711 -407.346 247.559 -407.581 240.457C-407.806 234.355 -407.177 228.721 -408.952 222.888C-411.147 215.655 -420.908 204.431 -417.552 197.773C-415.265 193.226 -408.482 193.014 -403.969 191.559C-396.651 189.199 -389.506 186.103 -382.606 182.302C-375.342 178.28 -369.157 172.065 -361.631 168.743C-349.415 163.359 -335.74 162.853 -322.9 162.877C-271.666 162.978 -219.781 175.301 -169.847 188.186C-143.843 194.894 -117.696 202.045 -92.4245 212.22C-84.7509 215.312 -76.0541 218.416 -69.3064 224.124C-65.0961 227.678 -62.2415 232.132 -57.4583 234.805C-16.5987 257.627 30.6403 266.103 74.0168 282.586C85.3073 286.877 147.878 308.556 115.163 328.949C95.2882 341.34 74.288 346.974 56.1526 363.925C50.6276 369.078 46.9442 373.344 44.7853 381.208C43.3632 386.442 46.7856 383.787 42.0075 389.258C36.2113 395.835 22.9769 398.49 15.8301 401.107Z" stroke="#EFEFEF" stroke-opacity="0.09" stroke-width="5"/>
<path fill-rule="evenodd" clip-rule="evenodd" d="M-47.9526 387.83C-119.772 406.157 -195.828 407.029 -268.78 390.782C-287.171 386.69 -306.311 387.668 -324.927 386.628C-343.015 385.631 -375.175 387.705 -388.313 370.748C-397.839 358.455 -387.502 332.33 -383.927 318.58C-379.371 301.062 -375.39 282.965 -382.87 265.951C-387.251 255.987 -393.253 246.502 -397.952 236.632C-400.199 231.918 -404.826 224.694 -402.897 220.229C-399.706 212.861 -384.778 209.76 -377.535 206.285C-354.383 195.182 -329.867 192.348 -305.116 192.427C-259.398 192.572 -213.444 200.195 -168.598 210.532C-147.966 215.29 -127.046 220.366 -107.147 228.636C-95.8866 233.313 -87.5813 242.336 -76.829 247.686C-42.2072 264.923 -5.0101 274.134 30.2068 289.896C40.4 294.461 78.4742 309.656 59.2935 327.572C40.7231 344.916 13.6372 342.855 -5.67186 359.171C-7.85721 361.039 -10.5607 363.275 -11.8278 366.295C-12.5767 368.101 -11.2583 371.539 -11.8278 372.566C-17.758 383.732 -38.8368 385.507 -47.9526 387.83Z" stroke="#EFEFEF" stroke-opacity="0.09" stroke-width="5"/>
</svg>
