<svg width="535" height="991" viewBox="0 0 535 991" fill="none" xmlns="http://www.w3.org/2000/svg">
<path fill-rule="evenodd" clip-rule="evenodd" d="M1057.71 517.837C1026.22 560.695 988.002 599.348 952.484 637.745C900.578 693.851 847.468 749.145 789.702 796.059C758.729 821.206 719.21 856.087 678.157 853.886C663.148 853.083 646.912 842.841 632.165 837.309C611.831 829.683 591.408 822.728 571.007 815.739C530.088 801.736 489.123 787.997 448.399 772.341C428.788 764.799 408.835 754.027 389.02 748.42C377.44 745.139 366.239 751.127 355.671 754.362C331.194 761.861 306.941 770.142 282.623 778.175C252.876 787.998 223.091 797.949 192.664 805.371C178.94 808.714 146.389 820.862 134.723 807.362C128.444 800.091 133.93 782.475 136.476 774.322C141.149 759.341 147.371 745.302 153.502 731.412C167.679 699.291 183.513 668.076 194.5 633.496C200.143 615.72 207.896 593.772 196.007 574.755C184.004 555.546 168.068 540.399 155.719 521.359C141.505 499.449 131.586 475.344 121.092 450.884C113.332 432.808 102.529 417.844 91.9244 402.103C80.2056 384.705 68.2071 367.207 58.2207 348.223C51.6224 335.684 40.311 312.975 48.6165 301.692C60.415 285.65 91.1846 287.835 109.253 286.788C134.221 285.333 159.376 285.263 184.408 284.3C202.582 283.607 220.916 283.276 238.453 279.064C266.723 272.276 294.209 262.189 321.576 252.322C372.249 234.051 422.133 214.322 474.154 200.383C519.73 188.17 643.707 229.566 671.645 235.217C727.41 246.502 784.144 256.162 839.434 276.242C854.393 281.682 876.928 288.231 888.418 304.598C895.503 314.682 895.355 321.649 906.93 326.269C922.722 332.571 940.615 331.912 956.359 332.407C981.714 333.202 1006.96 332.864 1032.24 332.96C1083.37 333.122 1134.63 335.067 1185.87 336.424C1201.36 336.834 1218.97 333.124 1234.66 336.955C1244.77 339.406 1245.48 345.712 1240.61 354.855C1232.08 370.899 1217.21 382.521 1205.03 393.631C1187.18 409.908 1168.68 425.12 1150.14 440.198C1131.6 455.276 1112.86 470.091 1094.32 485.191C1082.06 495.146 1067.53 504.461 1057.71 517.837Z" stroke="#EFEFEF" stroke-opacity="0.09" stroke-width="5"/>
<path fill-rule="evenodd" clip-rule="evenodd" d="M1022.82 519.613C989.037 563.157 948.833 601.407 910.155 638.579C860.659 686.172 809.31 732.108 753.481 768.528C720.699 789.904 681.782 814.234 641.459 810.599C627.074 809.301 614.394 801.118 600.611 794.59C584.898 787.135 568.937 780.724 553.017 774.468C520.247 761.593 487.373 749.485 454.395 738.144C436.917 732.097 417.038 723.054 399.392 724.059C385.362 724.855 371.339 732.901 358.302 737.642C334.825 746.178 311.37 754.777 287.813 763.055C260.629 772.605 233.324 782.013 205.424 789.126C189.874 793.091 164.101 803.336 149.596 793.048C136.941 784.071 160.575 733.004 164.573 723.434C177.061 693.551 190.855 664.588 201.559 633.343C207.894 614.912 215.613 592.492 214.503 570.611C213.552 551.964 200.884 533.821 192.214 518.672C181.363 499.694 171.35 479.689 159.742 461.374C149.403 445.054 136.292 431.562 124.172 417.456C110.84 401.938 97.322 386.157 85.7613 368.429C78.6643 357.515 66.8563 339.219 71.5398 325.748C76.9571 310.213 106.811 311.417 118.638 310.256C142.646 307.951 166.978 307.566 191.17 306.578C231.349 304.932 269.475 302.692 307.59 290.569C357.224 274.774 405.965 255.843 455.401 239.348C473.653 233.244 491.894 225.916 510.794 222.169C521.63 220.026 530.887 222.147 539.674 230.174C551.672 241.127 573.109 243.227 588.687 247.182C612.974 253.343 637.305 258.606 661.616 264.029C714.988 275.943 769.023 286.732 821.9 306.469C838.628 312.71 857.702 319.557 872.522 333.302C880.79 340.967 881.707 350.238 887.871 359.086C896.01 370.718 912.974 372.405 923.312 374.153C943.267 377.535 963.231 378.036 982.96 378.23C1027.6 378.665 1071.28 375.112 1114.99 369.401C1125.24 368.052 1165.4 362.121 1150.76 389.331C1134.59 419.399 1105.1 439.913 1082.11 460.575C1061.4 479.163 1040.44 496.912 1022.82 519.613Z" stroke="#EFEFEF" stroke-opacity="0.09" stroke-width="5"/>
<path fill-rule="evenodd" clip-rule="evenodd" d="M962.621 529.365C930.346 568.357 891.847 601.31 854.331 633.02C808.805 671.497 761.259 707.662 709.902 734.545C677.637 751.425 641.378 767.469 603.865 763.834C578.248 761.356 553.925 742.618 529.134 731.886C504.342 721.153 478.988 711.636 453.678 704.823C437.97 700.595 421.216 696.584 406.363 701.678C370.246 714.056 335.109 729.911 299.059 742.696C275.216 751.173 251.231 759.319 226.663 765.387C211.849 769.05 191.917 775.644 176.127 768.904C158.671 761.448 209.563 644.213 213.906 631.39C224.792 599.235 237.127 557.128 223.214 519.276C209.911 483.092 187.907 459.312 163.625 434.674C149.834 420.652 107.98 384.537 113.345 360.058C116.409 346.066 138.499 344.707 148.677 342.878C168.734 339.272 189.191 337.591 209.528 335.441C239.173 332.28 270.253 331.338 299.368 325.702C319.64 321.774 339.151 314.534 359.071 309.155C387.635 301.445 416.29 294.074 444.958 286.754C469.031 280.61 493.152 273.841 517.878 270.473C533.245 268.36 545.654 269.539 559.498 278.555C571.543 286.396 587.162 288.692 600.746 292.09C623.183 297.696 645.663 302.442 668.122 307.367C715.146 317.683 762.524 327.425 809.21 343.554C830.52 350.911 865.43 359.85 877.583 388.275C881.966 398.524 884.324 402.828 893.831 406.775C907.325 412.376 921.766 412.663 935.224 412.67C966.597 412.686 996.398 403.441 1027.7 403.38C1040.45 403.394 1057.84 406.142 1048.5 425.603C1037.6 448.355 1017.26 464.708 1001.33 481.228C993.377 489.471 985.042 497.426 977.905 506.801C972.43 514.018 968.355 522.482 962.621 529.365Z" stroke="#EFEFEF" stroke-opacity="0.09" stroke-width="5"/>
<path fill-rule="evenodd" clip-rule="evenodd" d="M884.753 540.757C854.087 573.62 818.572 601.055 783.333 626.651C744.188 655.06 703.22 680.879 659.529 698.901C629.365 711.358 596.383 721.487 562.697 717.122C541.393 714.359 523.933 701.223 503.688 691.708C473.126 677.317 441.694 667.848 412.848 679.931C380.505 693.468 347.748 705.899 314.577 717.225C294.569 724.058 274.39 730.568 253.732 735.077C240.673 737.935 223.785 741.378 210.496 736.67C192.714 730.361 228.044 636.629 232.003 623.287C241.823 590.197 246.614 556.955 244.648 519.745C243.04 489.383 224.547 470.131 205.954 452.079C194.398 440.871 159.621 414.211 163.05 394.717C164.917 383.974 179.64 380.559 187.346 377.971C202.034 373.044 217.291 369.989 232.34 366.41C254.569 361.152 276.846 350.389 299.677 348.13C350.274 343.113 400.462 337.062 450.687 329.459C478.373 325.264 506.148 320.753 534.341 319.416C544.463 318.937 554.933 318.497 565.257 320.782C571.898 322.248 576.458 326.552 582.511 329.466C611.364 343.324 644.76 345.485 674.637 351.316C714.355 359.068 754.189 366.502 793.807 377.616C814.645 383.462 843.042 388.985 861.246 407.435C866.747 413.008 866.562 418.696 870.608 424.388C875.267 430.954 884.07 430.926 889.923 431.535C903.207 432.923 955.507 426.39 939.523 459.694C931.89 475.562 919.978 487.623 910.194 501.109C906.652 505.993 903.229 510.867 900.783 516.833C896.697 526.831 891.749 533.237 884.753 540.757Z" stroke="#EFEFEF" stroke-opacity="0.09" stroke-width="5"/>
<path fill-rule="evenodd" clip-rule="evenodd" d="M801.692 552.4C738.959 609.083 660.547 657.259 579.969 673.587C553.171 679.011 523.346 681.14 495.482 668.544C479.046 661.097 464.936 651.5 447.682 651.843C435.227 652.093 423.523 658.735 412.088 663.068C395.527 669.346 378.906 675.444 362.192 681.254C341.465 688.432 320.577 695.284 299.237 700.333C283.988 703.938 263.232 710.043 247.215 702.833C228.094 694.237 251.945 623.491 254.697 611.286C261.37 581.705 264.186 554.021 259.263 521.845C257.839 512.467 258.759 502.217 255.856 493.159C252.881 483.911 246.273 476.738 240.261 470.451C232.394 462.207 207.937 444.208 210.026 431.024C211.182 423.744 221.842 420.009 227.112 417.119C236.994 411.683 247.351 407.409 257.44 402.489C274.552 394.125 289.405 377.842 307.613 373.311C356.572 361.113 411.353 367.822 462.042 365.985C492.183 364.915 522.354 363.188 552.77 364.526C562.395 364.951 572.312 365.403 582.02 367.898C588.795 369.637 594.16 374.537 600.607 376.789C625.335 385.451 651.696 387.666 676.718 391.25C709.208 395.929 741.695 400.204 774.199 405.743C794.572 409.214 819.863 410.294 839.635 421.559C854.076 429.784 847.177 435.251 843.969 447.375C842.329 453.559 844.454 458.65 844.744 465.076C845.158 474.25 841.436 481.933 837.881 488.894C832.981 498.51 825.398 507.38 822.239 518.404C821.124 522.286 822.329 526.41 821.483 529.76C819.025 539.516 807.592 547.069 801.692 552.4Z" stroke="#EFEFEF" stroke-opacity="0.09" stroke-width="5"/>
<path fill-rule="evenodd" clip-rule="evenodd" d="M720.844 559.857C668.106 599.057 606.021 629.967 541.993 640.498C519.716 644.16 496.541 645.007 473.382 639.434C462.85 636.915 454.457 633.208 444.299 635.609C420.731 641.185 397.92 649.885 374.696 656.728C358.077 661.627 341.303 666.282 324.136 668.979C312.658 670.785 297.186 673.41 285.622 666.823C268.809 657.221 280.804 606.052 282.373 592.382C284.969 569.713 286.888 544.771 277.324 521.909C274.396 514.919 270.937 508.977 268.728 501.64C266.808 495.341 265.841 489.311 262.505 483.691C258.376 476.723 245.854 467.547 247.224 459.746C248.154 454.421 254.62 452.451 258.554 449.772C264.934 445.428 270.944 440.361 276.519 434.624C282.384 428.561 286.599 420.494 292.91 415.093C303.158 406.336 316.17 402.284 328.528 399C377.838 385.9 431.184 385.364 482.813 385.916C509.698 386.202 536.844 386.913 563.993 390.998C572.237 392.241 581.469 393.233 589.553 397.44C594.594 400.057 598.583 403.96 603.93 405.512C649.603 418.755 697.407 415.408 743.731 421.398C755.789 422.958 822.027 429.414 796.25 459.089C780.592 477.12 761.964 488.401 749.251 510.733C745.375 517.524 743.023 522.918 743.141 531.665C743.234 537.484 745.785 533.837 742.716 540.768C738.977 549.113 726.988 555.289 720.844 559.857Z" stroke="#EFEFEF" stroke-opacity="0.09" stroke-width="5"/>
<path fill-rule="evenodd" clip-rule="evenodd" d="M655.786 562.466C591.82 600.068 518.905 620.579 444.198 622.456C425.366 622.934 407.228 628.886 389.031 632.601C371.354 636.225 340.999 646.674 323.629 632.395C311.035 622.045 313.686 592.168 313.287 576.923C312.779 557.5 311.557 537.623 299.614 521.828C292.619 512.577 284.198 504.245 276.923 495.174C273.446 490.842 266.979 484.51 267.588 479.361C268.601 470.865 282.094 463.786 288.092 458.3C307.262 440.766 330.052 431.496 353.883 425.199C397.899 413.567 444.229 409.663 490.251 408.873C511.426 408.511 532.965 408.407 554.414 411.893C566.55 413.862 577.058 421.122 588.893 423.923C627.007 432.956 665.357 432.963 703.632 440.305C714.71 442.433 755.575 448.448 742.126 472.055C729.104 494.908 702.475 499.742 688.456 521.715C686.876 524.224 684.899 527.25 684.523 530.723C684.307 532.797 686.535 536.038 686.274 537.255C683.686 550.415 663.906 557.697 655.786 562.466Z" stroke="#EFEFEF" stroke-opacity="0.09" stroke-width="5"/>
<path fill-rule="evenodd" clip-rule="evenodd" d="M607.648 561.841C573.927 577.756 538.133 589.052 502.204 599.113C482.565 604.613 461.366 612.069 440.327 610.646C427.4 609.761 415.014 609.277 402.124 609.991C388.254 610.757 366.573 614.42 354.579 601.647C345.618 592.101 343.573 568.09 340.159 554.479C336.407 539.552 331.145 529.148 320.347 520.639C313.555 515.28 284.115 497.107 284.885 489.386C285.616 482.031 301.316 476.727 307.758 473.141C328.112 461.787 349.72 453.942 372.005 448.293C406.517 439.534 442.276 434.916 478.261 433.803C493.143 433.359 508.525 432.908 523.664 435.933C533.861 437.975 543.486 443.862 553.664 446.07C582.817 452.415 612.304 454.126 641.61 460.688C651.017 462.802 680.978 467.113 679.289 486.58C677.886 502.832 660.82 512.235 654.502 524.568C643.765 545.593 626.181 553.101 607.648 561.841Z" stroke="#EFEFEF" stroke-opacity="0.09" stroke-width="5"/>
<path fill-rule="evenodd" clip-rule="evenodd" d="M583.041 559.311C556.065 571.093 527.796 580.659 499.293 588.394C480.899 593.385 461.565 598.921 442.035 598.298C432.226 597.988 422.622 593.688 412.808 591.416C402.703 589.082 389.092 587.103 382.38 577.342C376.072 568.169 373.452 553.023 367.023 541.648C361.312 531.556 353.646 526.431 345.359 520.797C340.075 517.193 313.951 502.46 315.145 497.342C316.425 491.86 328.955 488.921 335.243 486.526C352.56 479.894 370.279 474.512 388.323 470.402C412.968 464.857 438.272 461.029 463.901 460.847C482.08 460.711 497.718 467.801 515.632 471.273C538.846 475.797 562.234 478.026 585.504 483.545C597.1 486.294 613.979 489.305 622.946 502.02C626.389 506.891 632.009 520.119 631.236 526.12C630.309 533.331 621.118 538.747 616.878 541.672C606.251 548.983 594.506 554.303 583.041 559.311Z" stroke="#EFEFEF" stroke-opacity="0.09" stroke-width="5"/>
</svg>
