<svg width="492" height="662" viewBox="0 0 492 662" fill="none" xmlns="http://www.w3.org/2000/svg">
<path fill-rule="evenodd" clip-rule="evenodd" d="M1014.71 322.837C983.22 365.695 945.002 404.348 909.484 442.745C857.578 498.851 804.468 554.145 746.702 601.059C715.729 626.206 676.21 661.087 635.157 658.886C620.148 658.083 603.912 647.841 589.165 642.309C568.831 634.683 548.408 627.728 528.007 620.739C487.088 606.736 446.123 592.997 405.399 577.341C385.788 569.799 365.835 559.027 346.02 553.42C334.44 550.139 323.239 556.127 312.671 559.362C288.194 566.861 263.941 575.142 239.623 583.175C209.876 592.998 180.091 602.949 149.664 610.371C135.94 613.714 103.389 625.862 91.7229 612.362C85.4445 605.091 90.93 587.475 93.4764 579.322C98.1487 564.341 104.371 550.302 110.502 536.412C124.679 504.291 140.513 473.076 151.5 438.496C157.143 420.72 164.896 398.772 153.007 379.755C141.004 360.546 125.068 345.399 112.719 326.359C98.5045 304.449 88.5857 280.344 78.092 255.884C70.3318 237.808 59.5292 222.844 48.9244 207.103C37.2056 189.705 25.2071 172.207 15.2207 153.223C8.62238 140.684 -2.68904 117.975 5.61654 106.692C17.415 90.6504 48.1846 92.8351 66.2529 91.7881C91.2214 90.3335 116.376 90.2632 141.408 89.2998C159.582 88.6075 177.916 88.276 195.453 84.0644C223.723 77.2761 251.209 67.1889 278.576 57.3219C329.249 39.0514 379.133 19.3216 431.154 5.38255C476.73 -6.82957 600.707 34.5656 628.645 40.2174C684.41 51.5019 741.144 61.1625 796.434 81.2424C811.393 86.6819 833.928 93.2314 845.418 109.598C852.503 119.682 852.355 126.649 863.93 131.269C879.722 137.571 897.615 136.912 913.359 137.407C938.714 138.202 963.961 137.864 989.245 137.96C1040.37 138.122 1091.63 140.067 1142.87 141.424C1158.36 141.834 1175.97 138.124 1191.66 141.955C1201.77 144.406 1202.48 150.712 1197.61 159.855C1189.08 175.899 1174.21 187.521 1162.03 198.631C1144.18 214.908 1125.68 230.12 1107.14 245.198C1088.6 260.276 1069.86 275.091 1051.32 290.191C1039.06 300.146 1024.53 309.461 1014.71 322.837Z" stroke="#EFEFEF" stroke-opacity="0.09" stroke-width="5"/>
</svg>
